<svg xmlns="http://www.w3.org/2000/svg" version="1.1" xmlns:xlink="http://www.w3.org/1999/xlink" xmlns:svgjs="http://svgjs.dev/svgjs" width="1500" height="1500" viewBox="0 0 1500 1500"><rect width="1500" height="1500" fill="#ffffff"></rect><g transform="matrix(0.6666666666666666,0,0,0.6666666666666666,249.85778443113782,249.85778443113765)"><svg viewBox="0 0 334 334" data-background-color="#ffffff" preserveAspectRatio="xMidYMid meet" height="1500" width="1500" xmlns="http://www.w3.org/2000/svg" xmlns:xlink="http://www.w3.org/1999/xlink"><g id="tight-bounds" transform="matrix(1,0,0,1,0.04749999999998522,0.04750000000001364)"><svg viewBox="0 0 333.90454557049503 333.90454557049503" height="333.90454557049503" width="333.90454557049503"><g><svg></svg></g><g><svg viewBox="0 0 333.90454557049503 333.90454557049503" height="333.90454557049503" width="333.90454557049503"><g><path d="M0 166.952c0-92.205 74.747-166.952 166.952-166.952 92.205 0 166.952 74.747 166.953 166.952 0 92.205-74.747 166.952-166.953 166.953-92.205 0-166.952-74.747-166.952-166.953zM166.952 327.306c88.561 0 160.354-71.793 160.354-160.354 0-88.561-71.793-160.354-160.354-160.354-88.561 0-160.354 71.793-160.354 160.354 0 88.561 71.793 160.354 160.354 160.354z" data-fill-palette-color="tertiary" fill="#556970" stroke="transparent"></path><ellipse rx="160.27418187383762" ry="160.27418187383762" cx="166.95227278524752" cy="166.95227278524752" fill="#556970" stroke="transparent" stroke-width="0" fill-opacity="1" data-fill-palette-color="tertiary"></ellipse></g><g transform="matrix(1,0,0,1,83.12576668882993,71.17305217166896)"><svg viewBox="0 0 167.65301219283518 191.55844122715712" height="191.55844122715712" width="167.65301219283518"><g><svg viewBox="0 0 167.65301219283518 191.55844122715712" height="191.55844122715712" width="167.65301219283518"><g><svg viewBox="0 0 213.1584412271571 243.55243130925274" height="191.55844122715712" width="167.65301219283518"><g transform="matrix(1,0,0,1,0,150.52517338807218)"><svg viewBox="0 0 213.1584412271571 93.02725792118056" height="93.02725792118056" width="213.1584412271571"><g id="textblocktransform"><svg viewBox="0 0 213.1584412271571 93.02725792118056" height="93.02725792118056" width="213.1584412271571" id="textblock"><g><svg viewBox="0 0 213.1584412271571 93.02725792118056" height="93.02725792118056" width="213.1584412271571"><g transform="matrix(1,0,0,1,0,0)"><svg width="213.1584412271571" viewBox="3.91 -35.86 82.17 35.86" height="93.02725792118056" data-palette-color="#ffffff"><path d="M11.79-25.56L11.79-25.56 11.79-20 20.46-20Q21.04-20 21.34-19.8L21.34-19.8Q21.97-19.36 22.66-18.75 23.34-18.14 24.1-17.29L24.1-17.29Q24.34-16.97 24.34-16.77L24.34-16.77Q24.34-16.55 24.1-16.28L24.1-16.28Q23.34-15.43 22.66-14.82 21.97-14.21 21.34-13.77L21.34-13.77Q21-13.57 20.46-13.57L20.46-13.57 11.79-13.57 11.79-1.29Q11.79-0.56 11.49-0.28 11.18 0 10.45 0L10.45 0 5.25 0Q4.52 0 4.21-0.28 3.91-0.56 3.91-1.29L3.91-1.29 3.91-28.47Q3.91-30.91 4.36-32.34 4.81-33.76 6.12-34.39 7.42-35.01 9.94-35.01L9.94-35.01 21.46-35.01Q22.05-35.01 22.34-34.81L22.34-34.81Q22.97-34.38 23.66-33.76 24.34-33.15 25.1-32.3L25.1-32.3Q25.34-31.98 25.34-31.79L25.34-31.79Q25.34-31.57 25.1-31.3L25.1-31.3Q24.34-30.44 23.66-29.83 22.97-29.22 22.34-28.78L22.34-28.78Q22-28.59 21.46-28.59L21.46-28.59 14.58-28.59Q12.96-28.59 12.38-27.91 11.79-27.22 11.79-25.56ZM48.51 0L36.37 0Q33.86 0 32.55-0.63 31.25-1.27 30.8-2.71 30.34-4.15 30.34-6.54L30.34-6.54 30.34-31.1Q30.34-31.81 30.59-32.18L30.59-32.18Q31.69-33.79 33.66-35.57L33.66-35.57Q34.03-35.86 34.3-35.86L34.3-35.86Q34.59-35.86 34.91-35.57L34.91-35.57Q35.98-34.64 36.72-33.8 37.45-32.96 37.99-32.18L37.99-32.18Q38.23-31.79 38.23-31.1L38.23-31.1 38.23-9.45Q38.23-7.81 38.82-7.1 39.4-6.4 41.01-6.4L41.01-6.4 48.51-6.42Q49.09-6.42 49.39-6.23L49.39-6.23Q50.02-5.79 50.71-5.18 51.39-4.57 52.15-3.71L52.15-3.71Q52.39-3.39 52.39-3.2L52.39-3.2Q52.39-2.98 52.15-2.71L52.15-2.71Q51.39-1.86 50.71-1.25 50.02-0.63 49.39-0.2L49.39-0.2Q49.05 0 48.51 0L48.51 0ZM78.19-21.04L78.19-31.1Q78.19-31.81 78.44-32.18L78.44-32.18Q79.54-33.79 81.51-35.57L81.51-35.57Q81.88-35.86 82.15-35.86L82.15-35.86Q82.44-35.86 82.76-35.57L82.76-35.57Q83.83-34.64 84.57-33.8 85.3-32.96 85.83-32.18L85.83-32.18Q86.08-31.79 86.08-31.1L86.08-31.1 86.08-1.29Q86.08-0.56 85.77-0.28 85.47 0 84.74 0L84.74 0 79.54 0Q78.8 0 78.5-0.28 78.19-0.56 78.19-1.29L78.19-1.29 78.19-14.26 63.69-14.26 63.69-1.29Q63.69-0.56 63.39-0.28 63.08 0 62.35 0L62.35 0 57.15 0Q56.42 0 56.11-0.28 55.81-0.56 55.81-1.29L55.81-1.29 55.81-33.72Q55.81-34.45 56.11-34.73 56.42-35.01 57.15-35.01L57.15-35.01 62.35-35.01Q63.08-35.01 63.39-34.73 63.69-34.45 63.69-33.72L63.69-33.72 63.69-21.04 78.19-21.04Z" opacity="1" transform="matrix(1,0,0,1,0,0)" fill="#ffffff" class="wordmark-text-0" data-fill-palette-color="quaternary" id="text-0"></path></svg></g></svg></g></svg></g></svg></g><g transform="matrix(1,0,0,1,41.92044052879179,0)"><svg viewBox="0 0 129.31756016957354 128.56367044707156" height="128.56367044707156" width="129.31756016957354"><g><svg xmlns="http://www.w3.org/2000/svg" viewBox="20 20.173631984616488 60.018743579525974 59.66884899535076" x="0" y="0" height="128.56367044707156" width="129.31756016957354" class="icon-icon-0" data-fill-palette-color="quaternary" id="icon-0"><g data-name="Calque 2" fill="#ffffff" data-fill-palette-color="quaternary"><path d="M23.82 23.07A1.82 1.82 0 1 1 22 24.88 1.82 1.82 0 0 1 23.82 23.07M23.82 28.65A3.73 3.73 0 0 0 25.82 28.09C27.89 29.53 34.9 34.54 36.03 35.23A6.25 6.25 0 0 0 39.22 36.48C39.85 36.48 41.22 36.54 43.35 36.54A2.75 2.75 0 0 0 45.8 38 2.76 2.76 0 1 0 43.11 34.68C41.17 34.68 39.85 34.68 39.29 34.62A3.8 3.8 0 0 1 37 33.71C36 33.08 29.36 28.32 27.1 26.71A4 4 0 0 0 27.57 25 3.7 3.7 0 0 0 23.87 21.3 3.74 3.74 0 0 0 20.17 25 3.6 3.6 0 0 0 23.82 28.64Z" fill="#ffffff" data-fill-palette-color="quaternary"></path><path d="M22.13 44.61A1.82 1.82 0 1 1 23.95 46.43 1.78 1.78 0 0 1 22.13 44.61M27.52 45.55H33A2.71 2.71 0 0 0 35.57 47.37 2.76 2.76 0 0 0 35.57 41.86 2.71 2.71 0 0 0 33 43.67H27.52A3.76 3.76 0 0 0 23.95 40.91 3.7 3.7 0 0 0 20.25 44.61 3.74 3.74 0 0 0 23.95 48.31 3.52 3.52 0 0 0 27.52 45.55" fill="#ffffff" data-fill-palette-color="quaternary"></path><path d="M28.33 49.87A1.82 1.82 0 1 1 26.51 51.69 1.82 1.82 0 0 1 28.33 49.87M28.33 55.45A3.7 3.7 0 0 0 31.9 52.69H33A2.72 2.72 0 0 0 35.57 54.51 2.76 2.76 0 0 0 35.57 49 2.71 2.71 0 0 0 33 50.81H31.9A3.76 3.76 0 0 0 28.33 48.05 3.7 3.7 0 0 0 28.33 55.44Z" fill="#ffffff" data-fill-palette-color="quaternary"></path><path d="M23.7 75.24A1.82 1.82 0 1 1 25.52 73.42 1.78 1.78 0 0 1 23.7 75.24M24.76 69.85V63.4C24.76 60.46 25.76 59.83 27.45 59.83 29.52 59.83 31.83 59.83 32.84 59.89A2.73 2.73 0 0 0 35.47 61.71 2.76 2.76 0 1 0 35.47 56.2 2.71 2.71 0 0 0 32.9 58C31.84 58 29.52 57.94 27.51 57.94 22.87 57.94 22.87 62.01 22.87 63.39V69.78A3.76 3.76 0 0 0 20 73.42 3.7 3.7 0 0 0 23.7 77.12 3.74 3.74 0 0 0 27.4 73.42 3.58 3.58 0 0 0 24.76 69.86Z" fill="#ffffff" data-fill-palette-color="quaternary"></path><path d="M75.06 75.24A1.82 1.82 0 1 1 76.88 73.42 1.82 1.82 0 0 1 75.06 75.24M75.87 69.79V63.4C75.87 62.09 75.87 57.95 71.3 57.95 69.23 57.95 66.92 57.95 65.91 58.01A2.71 2.71 0 0 0 63.34 56.19 2.76 2.76 0 1 0 63.34 61.7 2.85 2.85 0 0 0 66 59.9C67.06 59.9 69.38 59.84 71.39 59.84 73 59.83 74 60.4 74 63.4V69.85A3.7 3.7 0 0 0 75 77.11 3.71 3.71 0 0 0 75.82 69.78Z" fill="#ffffff" data-fill-palette-color="quaternary"></path><path d="M72.42 23.69A1.57 1.57 0 1 1 74 25.26 1.59 1.59 0 0 1 72.42 23.69M63.59 47.37A2.76 2.76 0 0 0 66 45.86H70.57C74.83 45.86 74.83 42.1 74.83 40.86V27A3.46 3.46 0 1 0 70.57 23.62 3.44 3.44 0 0 0 73.05 27V40.9C73.05 43.53 72.23 44.03 70.67 44.03H66.35A2.75 2.75 0 0 0 60.9 44.59 2.63 2.63 0 0 0 63.59 47.37" fill="#ffffff" data-fill-palette-color="quaternary"></path><path d="M76.37 50.13A1.82 1.82 0 1 1 74.55 51.95 1.78 1.78 0 0 1 76.37 50.13M63.37 54.7A2.71 2.71 0 0 0 66 52.88H72.77A3.76 3.76 0 0 0 76.34 55.64 3.7 3.7 0 1 0 72.74 51H66A2.71 2.71 0 0 0 63.43 49.18 2.78 2.78 0 0 0 60.67 51.94 2.73 2.73 0 0 0 63.4 54.7Z" fill="#ffffff" data-fill-palette-color="quaternary"></path><rect x="40.48" y="39.98" width="18.04" height="23.93" rx="3.95" ry="3.95" fill="#ffffff" data-fill-palette-color="quaternary"></rect><path d="M40.48 24.45A1.82 1.82 0 1 1 38.66 26.27 1.86 1.86 0 0 1 40.48 24.45M40.48 30.03A3.7 3.7 0 0 0 44 27.33H50.26C50.95 27.33 51.57 27.33 51.83 27.58S52.14 28.02 52.14 28.83C52.14 29.96 52.14 31.46 52.08 32.65A2.76 2.76 0 1 0 55.84 35.22 2.76 2.76 0 0 0 53.9 32.59C53.9 31.4 53.96 29.96 53.96 28.83A3.32 3.32 0 0 0 53.14 26.26 3.7 3.7 0 0 0 50.26 25.51H44.06A3.71 3.71 0 1 0 40.48 30Z" fill="#ffffff" data-fill-palette-color="quaternary"></path><path d="M35 76.18A1.82 1.82 0 1 1 33.18 74.36 1.78 1.78 0 0 1 35 76.18M45.8 66A2.71 2.71 0 0 0 43.3 67.6H36.3C34.99 67.6 32.23 67.6 32.23 71.3V72.55A3.68 3.68 0 0 0 33.11 79.82 3.74 3.74 0 0 0 36.81 76.12 3.7 3.7 0 0 0 34.12 72.55C34.12 72.18 34.06 71.73 34.06 71.3 34.06 69.61 34.62 69.48 36.25 69.48H43.08A2.69 2.69 0 0 0 45.71 71.48 2.78 2.78 0 0 0 48.47 68.72 2.69 2.69 0 0 0 45.8 66" fill="#ffffff" data-fill-palette-color="quaternary"></path><path d="M62.71 78A1.82 1.82 0 0 1 60.89 76.18 1.87 1.87 0 0 1 62.71 74.3 1.82 1.82 0 0 1 64.53 76.12 1.87 1.87 0 0 1 62.71 78M63.59 72.55V71.29C63.59 67.59 60.83 67.59 59.52 67.59H55.7A2.67 2.67 0 0 0 53.2 66 2.76 2.76 0 1 0 55.83 69.51H59.53C61.16 69.51 61.72 69.63 61.72 71.33A8 8 0 0 1 61.66 72.58 3.7 3.7 0 1 0 66.36 76.15 3.57 3.57 0 0 0 63.59 72.55" fill="#ffffff" data-fill-palette-color="quaternary"></path></g></svg></g></svg></g><g></g></svg></g></svg></g></svg></g></svg></g><defs></defs></svg><rect width="333.90454557049503" height="333.90454557049503" fill="none" stroke="none" visibility="hidden"></rect></g></svg></g></svg>